<?xml version="1.0" encoding="utf-8"?>
<!-- Generator: Adobe Illustrator 24.1.2, SVG Export Plug-In . SVG Version: 6.00 Build 0)  -->
<svg version="1.1" id="Layer_1" xmlns="http://www.w3.org/2000/svg" xmlns:xlink="http://www.w3.org/1999/xlink" x="0px" y="0px"
	 viewBox="0 0 53 55" style="enable-background:new 0 0 53 55;" xml:space="preserve">
<style type="text/css">
	.st0{fill:#F7941D;}
	.st1{fill:#C16F16;}
	.st2{fill:#231F20;}
</style>
<g>
	<g>
		<path class="st0" d="M41.45,47.18c0.46-1.44,0.69-2.82,0.69-4.09c0-5.69-1.76-11.65-3.24-15.66c-0.3-0.81-0.45-1.64-0.49-2.46
			c-5.38,0.85-8.87-0.34-10.38-1.06c-1.16,1.61-4.35,5.27-10.78,7.71c-1.48,0.56-2.84,1.37-4.04,2.4C9.06,37.6,8.93,42.5,10.2,45.9
			c1.3,3.48,4.69,7.2,10.32,7.2c2.97,0,5.38-2.41,5.38-5.37c0-2.96-2.41-5.37-5.38-5.37h-0.36c-0.53,0-0.96-0.43-0.96-0.95
			s0.43-0.95,0.96-0.95h0.36c4.02,0,7.29,3.26,7.29,7.27c0,2.13-0.93,4.04-2.39,5.37H35.8c-0.58-1.75-1.16-5.07,0.01-10.04
			c1.01-4.31-1.62-9.59-1.64-9.65c-0.24-0.47-0.05-1.04,0.42-1.28c0.47-0.24,1.05-0.05,1.28,0.42c0.12,0.24,2.97,5.96,1.8,10.94
			c-1.27,5.42-0.3,8.53,0.17,9.6h4.96c-0.16-0.17-0.32-0.36-0.46-0.55C41.19,50.98,40.86,49.02,41.45,47.18z"/>
		<path class="st1" d="M35,39.23c-0.2,1.69-0.93,3.17-1.47,4.76c-0.61,1.82-1.07,3.77-0.93,5.7c0.07,1.03,0.34,2.31,0.79,3.4h2.41
			c-0.58-1.75-1.16-5.07,0.01-10.04c0.66-2.82-0.24-6.06-0.94-7.98C35.01,36.45,35.17,37.82,35,39.23z"/>
		<path class="st1" d="M36.87,27.32c0.19,1.7,0.75,3.24,1.27,4.86c0.9,2.82,1.49,5.65,1.53,8.61c0.04,2.83-0.31,5.65-0.35,8.47
			c-0.01,1.06,0.01,2.16,0.31,3.19c0.06,0.22,0.15,0.43,0.24,0.64h2.93c-0.16-0.17-0.32-0.36-0.46-0.55
			c-1.15-1.56-1.47-3.52-0.89-5.36c0.46-1.44,0.69-2.82,0.69-4.09c0-5.69-1.76-11.65-3.24-15.66c-0.3-0.81-0.45-1.64-0.49-2.46
			c-0.61,0.1-1.18,0.16-1.74,0.21C36.73,25.89,36.79,26.6,36.87,27.32z"/>
		<path class="st0" d="M50.66,9.52c-0.49-1.7-1.15-3.61-1.55-4.73c-1.64,0.65-5.1,1.55-9.63,0.04c-0.45-0.15-0.93-0.31-1.44-0.49
			c-8.22-2.85-16.56-4.89-20.31,3.9c-2.71,6.33-0.53,11.05,2.15,13.17c2.37,1.87,5.28,1.96,7.62,0.24c1.91-1.41,2.78-3.39,2.59-5.89
			c-0.04-0.52,0.35-0.98,0.88-1.02c0.53-0.05,0.99,0.35,1.03,0.88c0.21,2.76-0.65,5.11-2.49,6.85c1.57,0.6,4.62,1.35,9.08,0.56
			c0.48-2.33,1.97-4.42,4.21-5.57c1.6-0.82,3.12-1.54,4.53-2.14C51.77,13.41,51.4,12.11,50.66,9.52z"/>
		<path class="st1" d="M50.66,9.52c-0.49-1.7-1.15-3.61-1.55-4.73c-0.42,0.17-0.97,0.35-1.63,0.51c0.2,0.52,0.37,1.02,0.52,1.45
			c0.65,1.92,1.9,5.36-0.36,6.63c-1.32,0.74-2.92,0.99-4.33,1.53c-2.14,0.81-4.07,1.98-5.6,3.69c-1.06,1.19-1.5,2.49-1.74,4.02
			c-0.02,0.14-0.07,0.4-0.12,0.71c0.84-0.04,1.75-0.14,2.72-0.31c0.48-2.33,1.97-4.42,4.21-5.57c1.6-0.82,3.12-1.54,4.53-2.14
			C51.77,13.41,51.4,12.11,50.66,9.52z"/>
	</g>
	<g>
		<path class="st2" d="M43.65,19.14c1.56-0.8,3.04-1.5,4.41-2.08c5.58-2.37,5.35-4.84,4.43-8.06c-0.77-2.67-1.9-5.72-1.95-5.85
			c-0.1-0.27-0.31-0.47-0.58-0.57c-0.27-0.09-0.57-0.06-0.81,0.08c-0.15,0.09-3.69,2.15-9.08,0.36c-0.44-0.15-0.91-0.31-1.41-0.48
			c-6.27-2.17-17.93-6.21-22.7,4.95c-2.93,6.85-0.74,12.68,2.72,15.41c1.85,1.46,4.03,2.06,6.13,1.81c-1.6,1.59-4.24,3.61-8.25,5.14
			c-1.69,0.64-3.24,1.56-4.61,2.74c-4.1,3.53-5.46,8.89-3.56,13.99c1.05,2.8,2.94,5.06,5.34,6.53h-0.51
			c-5.89,0-10.82-4.59-11.21-10.45c-0.22-3.35-0.05-5.76-0.05-5.79c0.04-0.52-0.36-0.98-0.88-1.02c-0.52-0.03-0.98,0.36-1.02,0.88
			c-0.01,0.1-0.18,2.56,0.05,6.05C0.58,49.63,6.34,55,13.23,55h7.29H47.2c0,0,0,0,0,0c0,0,0,0,0,0c0.46,0,0.85-0.33,0.94-0.76
			c0.01-0.06,0.02-0.13,0.02-0.19c0-0.53-0.43-0.95-0.96-0.95c-1.33,0-2.54-0.61-3.32-1.68c-0.78-1.07-1-2.4-0.6-3.66
			c0.52-1.63,0.78-3.2,0.78-4.67c0-5.97-1.82-12.16-3.35-16.31C39.61,23.84,40.89,20.56,43.65,19.14z M42.14,43.09
			c0,1.27-0.23,2.65-0.69,4.09c-0.58,1.85-0.26,3.8,0.89,5.36c0.14,0.2,0.3,0.38,0.46,0.55h-4.96c-0.47-1.08-1.44-4.19-0.17-9.6
			c1.17-4.98-1.67-10.7-1.8-10.94c-0.24-0.47-0.81-0.66-1.28-0.42c-0.47,0.24-0.66,0.81-0.42,1.28c0.03,0.05,2.66,5.34,1.64,9.65
			c-1.17,4.97-0.58,8.29-0.01,10.04H25.43c1.46-1.33,2.39-3.24,2.39-5.37c0-4.01-3.27-7.27-7.29-7.27h-0.36
			c-0.53,0-0.96,0.43-0.96,0.95s0.43,0.95,0.96,0.95h0.36c2.97,0,5.38,2.41,5.38,5.37c0,2.96-2.41,5.37-5.38,5.37
			c-5.63,0-9.03-3.72-10.32-7.2c-1.27-3.4-1.14-8.3,3.02-11.88c1.19-1.03,2.55-1.84,4.04-2.4c6.42-2.44,9.62-6.1,10.78-7.71
			c1.51,0.72,5.01,1.91,10.38,1.06c0.03,0.82,0.19,1.65,0.49,2.46C40.38,31.44,42.14,37.4,42.14,43.09z M38.57,23.01
			c-4.46,0.79-7.51,0.05-9.08-0.56c1.85-1.75,2.71-4.09,2.49-6.85c-0.04-0.52-0.5-0.92-1.03-0.88c-0.53,0.04-0.92,0.5-0.88,1.02
			c0.19,2.5-0.68,4.49-2.59,5.89c-2.33,1.72-5.25,1.62-7.62-0.24c-2.68-2.12-4.85-6.83-2.15-13.17c3.76-8.79,12.1-6.75,20.31-3.9
			c0.51,0.18,0.99,0.34,1.44,0.49c4.53,1.51,7.99,0.61,9.63-0.04c0.4,1.12,1.06,3.03,1.55,4.73c0.74,2.59,1.11,3.89-3.34,5.79
			c-1.41,0.6-2.94,1.32-4.53,2.14C40.54,18.59,39.04,20.68,38.57,23.01z"/>
		<path class="st2" d="M35.19,5.57c-1.02,0-1.85,0.82-1.85,1.84c0,1.02,0.83,1.84,1.85,1.84c1.02,0,1.85-0.82,1.85-1.84
			C37.04,6.4,36.21,5.57,35.19,5.57z"/>
	</g>
</g>
</svg>
